<?xml version="1.0" standalone="no"?>
<!DOCTYPE svg PUBLIC "-//W3C//DTD SVG 20010904//EN"
 "http://www.w3.org/TR/2001/REC-SVG-20010904/DTD/svg10.dtd">
<svg version="1.0" xmlns="http://www.w3.org/2000/svg"
 width="1280.000000pt" height="1280.000000pt" viewBox="0 0 1280.000000 1280.000000"
 preserveAspectRatio="xMidYMid meet">
<metadata>
Created by potrace 1.14, written by Peter Selinger 2001-2017
</metadata>
<g transform="translate(0.000000,1280.000000) scale(0.100000,-0.100000)"
fill="#000000" stroke="none">
<path d="M2340 9334 c-115 -15 -490 -101 -625 -143 -517 -165 -677 -228 -804
-319 -124 -88 -193 -158 -289 -295 -176 -249 -293 -482 -342 -682 -46 -187
-47 -218 -13 -361 27 -111 34 -126 86 -197 31 -42 73 -87 93 -99 32 -21 35
-26 29 -58 -3 -19 -9 -51 -12 -71 -7 -49 51 -291 83 -346 l25 -43 -21 -40
c-101 -198 -190 -525 -198 -725 -4 -111 -1 -131 32 -275 42 -178 55 -206 159
-352 83 -115 138 -169 245 -243 l69 -47 -15 -61 c-15 -58 -14 -64 12 -172 23
-94 34 -122 73 -176 67 -93 139 -142 292 -194 220 -76 471 -195 631 -301 102
-66 260 -224 294 -292 47 -93 115 -178 183 -226 55 -40 81 -51 175 -73 l111
-27 666 43 c366 23 765 49 886 56 121 8 292 20 380 25 88 6 228 15 310 21 83
5 607 39 1165 74 1091 70 1545 99 1790 115 85 6 576 37 1090 70 514 33 1003
65 1085 70 200 13 765 49 890 56 103 6 317 48 463 90 115 33 226 92 367 192
152 109 235 194 356 363 216 301 327 540 413 891 67 278 71 301 71 483 -1 162
-2 177 -38 321 -61 249 -81 295 -189 446 -74 104 -100 130 -201 202 -59 42
-81 51 -209 82 -90 22 -155 33 -174 29 -30 -5 -32 -4 -53 52 -32 88 -134 223
-211 279 -56 41 -79 51 -177 74 l-113 27 -118 -28 c-143 -35 -237 -79 -353
-164 l-88 -65 -98 26 c-54 14 -99 27 -100 28 -1 1 11 58 27 126 16 69 30 141
30 161 0 41 -55 280 -72 313 -6 12 -36 56 -67 100 -43 61 -75 92 -139 137 -78
54 -92 60 -218 89 l-135 32 -147 -37 c-81 -20 -153 -37 -160 -38 -9 -1 -23 29
-41 88 -37 125 -114 232 -216 304 -65 45 -88 55 -192 79 l-118 28 -115 -28
c-64 -16 -132 -40 -153 -54 l-38 -25 -72 52 c-64 47 -85 56 -187 81 l-115 27
-115 -26 c-63 -14 -127 -32 -141 -39 -37 -19 -188 -131 -230 -171 l-37 -35
-25 76 c-26 77 -108 206 -164 257 -39 36 -131 103 -171 123 -42 22 -281 81
-391 97 -125 18 -239 6 -451 -45 -102 -24 -212 -54 -244 -65 -47 -17 -66 -19
-95 -11 -29 7 -58 4 -149 -19 -154 -39 -296 -114 -500 -260 l-111 -80 -28 40
c-15 22 -66 67 -113 101 -79 57 -94 64 -200 89 -63 16 -126 28 -140 29 -44 1
-254 -51 -290 -72 -132 -75 -207 -155 -343 -368 -48 -74 -232 -441 -317 -632
l-43 -96 -106 -27 c-58 -14 -136 -39 -173 -55 -63 -26 -82 -28 -58 -4 31 31
84 201 141 454 20 88 13 216 -20 360 -54 233 -66 260 -183 416 -84 114 -155
179 -285 267 -134 90 -206 119 -431 173 -175 43 -198 46 -347 49 -88 2 -176 1
-195 -1z m405 -509 c192 -40 348 -128 447 -254 34 -42 69 -94 79 -117 74 -166
61 -391 -33 -579 -181 -360 -526 -553 -1263 -706 -77 -16 -143 -29 -146 -29
-9 0 -89 -107 -89 -120 0 -5 23 -10 53 -10 76 0 297 -35 412 -65 234 -61 433
-169 552 -298 106 -115 141 -282 89 -429 -55 -154 -256 -389 -456 -530 -311
-220 -724 -352 -994 -318 -181 23 -310 84 -412 193 -104 111 -144 215 -144
371 1 202 113 497 310 811 l77 123 -68 17 c-123 30 -191 91 -205 182 -8 53 25
127 65 147 60 30 258 89 387 115 130 27 139 30 164 62 278 354 339 425 434
507 101 89 203 132 345 148 l64 7 -23 -39 c-14 -21 -101 -158 -195 -304 -94
-146 -175 -271 -179 -277 -8 -15 15 -12 159 24 410 100 699 274 788 472 25 56
20 148 -10 189 -31 41 -91 80 -168 107 -61 21 -88 25 -202 25 -218 0 -406 -41
-768 -168 -276 -97 -325 -116 -325 -127 0 -5 17 -19 38 -30 22 -12 38 -29 40
-42 4 -27 -13 -36 -238 -128 -298 -121 -406 -155 -502 -155 -92 0 -112 37 -83
159 32 138 213 468 333 609 100 118 206 170 637 311 271 89 447 136 591 156
122 18 329 13 439 -10z m4255 -225 c107 -13 197 -43 233 -75 34 -32 54 -71 82
-160 39 -121 49 -186 48 -310 0 -111 -3 -128 -37 -234 -71 -216 -265 -562
-525 -936 -235 -339 -403 -596 -431 -660 -17 -38 -38 -84 -46 -102 -8 -17 -14
-47 -14 -67 0 -29 4 -36 19 -36 31 0 115 72 276 234 277 279 542 616 975 1241
317 458 626 815 706 815 59 0 129 -163 129 -300 -1 -86 0 -84 -170 -390 -255
-458 -542 -1022 -618 -1215 -51 -129 -107 -321 -128 -434 -13 -75 -5 -101 30
-101 27 0 230 170 335 281 235 247 470 595 632 934 34 72 96 216 137 320 73
183 76 192 66 235 -6 25 -12 81 -12 125 -2 73 1 86 32 145 45 88 172 277 211
318 59 58 86 39 126 -89 37 -118 35 -187 -10 -393 -133 -606 -359 -1132 -716
-1667 -156 -234 -211 -302 -369 -459 -193 -192 -359 -308 -441 -309 -14 -1
-48 10 -75 23 -60 27 -197 170 -242 250 l-28 51 0 200 c0 266 25 383 170 787
36 100 64 186 62 192 -2 5 -112 -134 -244 -311 -566 -754 -816 -1035 -995
-1118 -69 -32 -90 -31 -133 7 -46 39 -155 259 -187 373 l-22 81 -78 -86 c-166
-181 -365 -333 -486 -370 -161 -50 -281 2 -327 141 -14 42 -17 73 -12 163 6
115 22 187 93 414 20 62 34 115 32 117 -6 6 -205 -226 -254 -296 -114 -160
-210 -277 -323 -390 -177 -177 -255 -210 -361 -156 -129 64 -161 314 -94 727
7 41 6 44 -10 31 -14 -11 -157 -196 -330 -424 -69 -90 -167 -201 -204 -229
-39 -30 -84 -36 -127 -16 -56 25 -146 202 -192 378 -37 141 -44 363 -14 480
42 166 149 336 316 505 116 117 177 165 332 263 142 88 244 127 334 127 81 0
113 -16 147 -74 l26 -44 33 89 c100 265 177 442 323 739 145 294 235 423 306
441 63 16 124 -34 144 -117 20 -84 8 -152 -55 -305 -64 -154 -337 -706 -410
-830 -69 -116 -110 -200 -154 -316 -119 -314 -182 -587 -184 -803 -2 -146 17
-185 92 -185 46 0 210 145 364 320 60 69 115 127 122 130 7 3 34 34 62 70 27
36 86 114 132 173 46 60 139 188 207 285 l123 177 -87 9 c-55 5 -124 4 -187
-2 -55 -6 -101 -9 -103 -7 -8 8 29 110 73 200 87 178 207 301 337 344 l64 21
31 118 c18 64 39 158 47 209 35 205 105 302 321 445 91 60 282 168 298 168 4
0 13 -16 21 -35 l15 -34 88 38 c185 80 331 127 458 147 103 16 124 16 225 4z
m2924 -791 c41 -33 58 -75 58 -146 -1 -185 -178 -433 -309 -433 -107 0 -164
152 -114 303 36 112 129 234 208 276 52 27 122 27 157 0z m-306 -732 c25 -25
27 -34 26 -105 0 -63 -6 -92 -32 -159 -54 -136 -202 -354 -345 -509 -81 -88
-111 -167 -111 -291 0 -75 3 -87 30 -124 52 -75 131 -97 224 -64 128 45 334
257 375 385 58 180 211 431 371 609 62 69 94 85 158 78 183 -21 203 -67 110
-251 -62 -122 -103 -185 -207 -321 -109 -143 -181 -318 -162 -392 l7 -28 16
21 c10 12 62 89 117 170 303 448 657 825 886 943 44 22 86 41 93 41 20 0 74
-109 92 -186 20 -88 15 -184 -15 -242 -12 -23 -50 -82 -85 -130 -148 -203
-258 -405 -296 -546 -23 -84 -21 -127 7 -158 25 -27 63 -22 131 20 125 75 167
116 228 220 126 215 261 419 317 478 99 106 203 140 286 94 70 -40 153 -181
193 -327 30 -113 30 -345 -1 -497 -33 -165 -93 -333 -180 -511 -211 -429 -434
-639 -769 -726 -44 -12 -139 -24 -222 -29 -212 -13 -1047 -67 -1400 -90 -168
-11 -413 -27 -545 -35 -585 -37 -1156 -74 -1330 -85 -82 -5 -571 -37 -1085
-70 -514 -33 -1005 -64 -1090 -70 -85 -6 -470 -31 -855 -55 -385 -25 -979 -63
-1319 -85 -341 -22 -620 -39 -621 -37 -1 1 -23 39 -50 84 -155 263 -467 505
-885 686 -69 30 -168 69 -220 87 -52 18 -98 35 -102 39 -4 3 2125 5 4730 3
3467 -2 4762 0 4832 8 205 24 333 70 423 150 79 70 232 283 292 405 97 197
152 409 143 553 -9 130 -86 237 -159 219 -69 -17 -91 -46 -189 -244 -52 -105
-108 -208 -125 -229 -37 -49 -93 -102 -126 -119 -14 -8 -86 -74 -160 -148
-147 -148 -232 -210 -315 -228 -85 -19 -163 10 -205 77 -72 117 -63 305 25
531 38 99 150 325 224 453 28 47 48 87 46 89 -8 9 -174 -162 -239 -244 -69
-89 -148 -207 -223 -335 -177 -305 -293 -476 -336 -500 -35 -18 -85 -15 -115
8 -58 43 -114 192 -133 355 l-12 100 -26 -34 c-140 -185 -316 -356 -422 -408
-113 -57 -204 -37 -298 66 -119 130 -179 351 -168 623 5 113 10 137 47 250 98
292 360 692 501 765 57 29 81 34 153 32 58 -2 71 -6 95 -30z"/>
<path d="M1522 6691 c-180 -276 -212 -344 -212 -449 0 -126 41 -182 170 -232
174 -68 505 -6 720 136 82 53 179 149 216 211 54 92 35 181 -50 237 -148 98
-425 177 -740 210 -26 3 -34 -6 -104 -113z"/>
<path d="M6821 7988 c-74 -10 -257 -67 -351 -110 -36 -16 -104 -52 -151 -80
-83 -49 -90 -55 -157 -157 -38 -58 -73 -111 -76 -117 -4 -8 26 -17 92 -29 143
-26 137 -21 99 -80 -204 -321 -296 -449 -337 -470 -43 -22 -98 -27 -175 -16
-53 8 -72 7 -77 -2 -103 -164 -196 -352 -263 -532 -105 -282 -113 -502 -20
-541 38 -15 64 -10 145 31 86 43 134 80 242 184 91 86 106 105 143 186 23 50
68 135 100 190 94 163 156 250 689 968 190 255 230 319 257 410 25 85 22 124
-11 147 -33 24 -72 28 -149 18z"/>
<path d="M4025 6717 c-294 -151 -503 -325 -550 -456 -21 -62 -45 -202 -45
-270 0 -67 9 -78 56 -67 45 12 321 294 454 465 174 223 196 257 214 325 10 37
17 69 15 71 -3 2 -67 -29 -144 -68z"/>
</g>
</svg>
