<?xml version="1.0" standalone="no"?>
<!DOCTYPE svg PUBLIC "-//W3C//DTD SVG 20010904//EN"
 "http://www.w3.org/TR/2001/REC-SVG-20010904/DTD/svg10.dtd">
<svg version="1.0" xmlns="http://www.w3.org/2000/svg"
 width="1027.000000pt" height="1027.000000pt" viewBox="0 0 1027.000000 1027.000000"
 preserveAspectRatio="xMidYMid meet">
<metadata>
Created by potrace 1.14, written by Peter Selinger 2001-2017
</metadata>
<g transform="translate(0.000000,1027.000000) scale(0.100000,-0.100000)"
fill="#000000" stroke="none">
<path d="M4435 7131 c-11 -5 -31 -10 -45 -10 -35 -1 -137 -44 -163 -70 l-23
-21 -55 21 c-137 53 -183 63 -306 67 -127 3 -168 -4 -251 -47 -76 -39 -204
-187 -264 -305 -11 -23 -29 -52 -39 -65 -11 -13 -19 -31 -19 -41 0 -10 -9 -28
-19 -42 -11 -14 -29 -47 -39 -74 -49 -122 -71 -168 -84 -174 -7 -4 -59 -10
-116 -14 -56 -3 -108 -7 -114 -9 -7 -1 -14 9 -16 23 -20 144 -159 353 -313
470 -68 52 -225 122 -339 151 -112 29 -119 30 -310 26 -210 -5 -269 -13 -455
-61 -321 -85 -545 -202 -762 -401 -60 -55 -203 -251 -203 -279 0 -6 -6 -22
-13 -36 -7 -14 -19 -52 -26 -85 -7 -33 -16 -74 -22 -91 -24 -78 6 -235 69
-364 28 -56 57 -95 119 -156 71 -71 90 -85 145 -102 l63 -20 -3 -38 c-1 -22
-6 -55 -11 -74 -5 -19 -15 -61 -22 -92 -10 -49 -20 -64 -75 -119 -35 -35 -64
-69 -64 -75 0 -6 -6 -17 -14 -23 -44 -37 -88 -305 -62 -378 6 -16 2 -26 -14
-40 -43 -36 -94 -124 -106 -183 -9 -48 -10 -186 0 -235 22 -110 111 -219 216
-264 30 -13 82 -35 115 -49 132 -56 234 -108 315 -161 47 -30 105 -66 130 -79
45 -24 96 -65 160 -127 46 -45 73 -80 140 -179 100 -147 163 -170 440 -162 96
3 234 10 305 15 72 6 238 15 370 20 132 6 258 13 280 16 22 3 101 10 175 15
74 6 180 14 235 20 55 5 210 17 345 25 135 9 295 20 355 25 61 5 211 16 335
25 347 25 466 34 580 44 58 6 200 15 315 21 116 5 226 15 246 20 20 6 83 10
139 10 57 0 117 4 134 9 17 6 166 17 331 26 165 10 313 21 329 26 16 5 83 9
149 9 66 0 136 4 156 10 20 5 135 15 256 20 121 6 272 15 335 20 63 5 178 14
255 20 77 5 167 12 200 15 33 3 143 10 245 16 102 6 237 14 300 19 63 5 178
13 255 18 168 12 230 27 355 89 137 67 233 138 364 269 91 92 146 155 146 169
0 5 17 28 38 53 84 102 174 289 219 452 49 180 70 273 95 430 13 83 14 436 1
515 -26 153 -47 225 -102 332 -38 75 -110 158 -162 189 -138 78 -293 102 -432
66 -35 -9 -41 -8 -71 19 -19 16 -37 29 -41 29 -4 0 -16 9 -25 21 -17 19 -90
51 -155 69 -16 4 -50 15 -75 23 -59 21 -223 32 -275 19 -136 -35 -189 -58
-243 -109 -18 -17 -25 -16 -52 7 -23 20 -119 60 -145 60 -24 0 -26 17 -5 43
11 14 20 29 20 34 0 5 11 20 24 32 13 12 37 50 52 84 25 54 29 77 32 170 4
113 0 132 -45 222 -61 119 -143 167 -393 228 -54 14 -198 14 -260 0 -25 -5
-78 -27 -117 -48 -55 -30 -79 -50 -103 -87 -17 -26 -35 -48 -39 -48 -4 0 -20
14 -36 30 -30 32 -118 80 -144 80 -9 0 -40 9 -69 20 -62 24 -130 25 -205 6
-52 -14 -78 -25 -140 -64 -25 -15 -97 -115 -97 -134 0 -15 -28 -8 -82 20 -71
38 -200 72 -271 72 -59 0 -151 -20 -203 -45 -29 -14 -89 -74 -125 -126 l-16
-23 -45 45 c-101 97 -173 142 -258 160 -19 4 -61 14 -93 23 -74 20 -199 20
-274 0 -32 -8 -87 -22 -123 -30 -57 -12 -65 -12 -73 1 -11 21 -171 100 -243
120 -110 32 -249 49 -279 36z m202 -112 c95 -24 184 -65 262 -119 l59 -41 68
20 c193 57 285 63 421 26 161 -43 259 -122 339 -274 14 -28 30 -51 34 -51 5 0
28 37 52 83 57 109 127 180 198 201 143 42 272 1 480 -152 17 -12 19 -8 30 45
7 32 20 74 30 93 29 56 101 117 161 134 66 20 86 20 163 0 84 -22 164 -66 237
-132 59 -54 62 -55 76 -37 114 162 149 193 250 219 84 22 128 20 252 -10 169
-42 258 -99 305 -197 59 -121 45 -219 -51 -363 -74 -113 -116 -191 -108 -203
3 -5 29 -15 57 -21 89 -21 161 -51 217 -91 30 -22 57 -39 61 -39 4 0 37 24 74
54 125 103 247 127 421 82 134 -35 197 -68 269 -140 l61 -62 60 25 c155 62
329 25 449 -95 82 -82 117 -158 162 -353 36 -155 38 -383 5 -566 -47 -267
-105 -465 -177 -609 -143 -284 -381 -534 -632 -664 -143 -75 -142 -74 -622
-107 -201 -13 -463 -31 -582 -40 -119 -8 -281 -20 -360 -25 -79 -5 -206 -14
-283 -19 -153 -11 -506 -36 -735 -51 -80 -6 -233 -17 -340 -25 -107 -8 -231
-17 -275 -20 -44 -3 -134 -10 -200 -15 -66 -5 -275 -21 -465 -35 -190 -14
-403 -29 -475 -35 -71 -6 -222 -17 -335 -25 -113 -8 -263 -19 -335 -25 -71 -6
-283 -21 -470 -35 -187 -14 -398 -29 -470 -35 -71 -6 -247 -17 -390 -25 -143
-8 -336 -20 -430 -25 -263 -16 -354 -16 -398 3 -66 28 -95 55 -158 147 -101
147 -203 240 -381 347 -172 103 -269 153 -414 213 -54 22 -115 51 -134 64 -89
59 -148 205 -128 317 13 72 37 116 94 171 l48 47 -12 64 c-16 87 -15 129 7
219 21 91 64 162 132 219 50 41 51 44 77 164 6 28 23 99 38 158 14 60 23 111
20 114 -3 3 -27 9 -53 14 -184 35 -353 241 -370 456 -6 69 15 175 53 261 59
135 189 279 359 401 261 185 673 314 1010 314 119 0 156 -4 245 -26 125 -32
230 -80 319 -147 89 -66 129 -109 193 -210 59 -92 79 -139 102 -239 8 -35 19
-67 23 -72 4 -4 44 1 88 12 57 14 106 19 170 17 50 -1 95 1 102 5 6 4 26 42
43 85 57 137 160 335 226 433 143 217 278 280 489 230 50 -12 127 -40 172 -61
45 -22 88 -40 96 -40 7 0 24 12 38 26 35 38 85 66 153 86 69 20 115 18 233
-13z"/>
<path d="M3734 6991 c-88 -25 -154 -78 -230 -185 -64 -89 -203 -357 -263 -506
-26 -65 -33 -75 -53 -72 -90 10 -219 2 -288 -17 -41 -12 -81 -23 -89 -24 -9
-1 -20 28 -37 101 -38 171 -101 282 -221 392 -120 110 -221 159 -408 199 -208
46 -509 9 -823 -99 -325 -113 -624 -355 -721 -582 -9 -24 -26 -81 -35 -127
-18 -81 -18 -88 -1 -168 25 -121 94 -232 188 -302 61 -47 177 -84 216 -69 13
4 26 6 29 3 3 -2 -7 -48 -22 -100 -15 -53 -40 -157 -55 -233 -28 -133 -29
-137 -63 -158 -38 -25 -102 -94 -122 -134 -7 -14 -21 -65 -31 -113 -17 -84
-17 -91 -1 -168 10 -45 20 -87 23 -95 3 -8 -3 -17 -13 -21 -65 -23 -121 -99
-142 -193 -20 -86 33 -215 111 -274 17 -13 75 -41 127 -61 120 -48 273 -124
370 -185 41 -26 109 -68 151 -93 88 -54 208 -174 292 -294 107 -152 130 -160
400 -144 100 6 306 18 457 26 239 14 608 39 1080 75 74 6 254 19 400 30 146
11 326 24 400 30 118 9 574 42 950 70 69 5 217 16 330 25 327 25 451 34 690
50 124 9 287 20 363 25 75 6 199 14 275 20 75 5 272 19 437 30 165 11 361 24
435 30 74 5 234 17 355 25 121 8 285 20 365 26 213 15 272 31 415 119 226 138
425 361 558 625 64 127 138 399 172 635 26 177 17 398 -24 554 -46 181 -97
268 -195 336 -41 27 -175 70 -221 70 -46 0 -168 -39 -192 -62 l-25 -23 -22 30
c-41 59 -119 127 -170 150 -59 28 -179 60 -251 69 -102 13 -224 -38 -332 -137
l-42 -38 -52 41 c-74 58 -109 74 -234 105 -60 15 -112 29 -114 31 -2 1 6 16
18 32 12 17 21 32 21 34 0 11 89 159 124 206 114 155 68 349 -102 433 -66 33
-219 69 -292 69 -157 0 -243 -60 -329 -228 -12 -23 -26 -42 -31 -42 -5 0 -18
13 -30 30 -25 35 -119 110 -177 139 -22 12 -72 30 -111 41 -70 19 -74 19 -135
3 -129 -36 -196 -156 -172 -305 4 -27 4 -48 1 -48 -4 0 -21 16 -38 36 -80 90
-214 170 -337 199 -64 15 -80 16 -128 4 -62 -14 -133 -57 -158 -95 -9 -14 -44
-78 -77 -142 -33 -64 -64 -118 -68 -120 -3 -1 -14 25 -24 59 -32 115 -134 241
-238 295 -51 27 -181 54 -258 54 -72 0 -192 -23 -292 -56 l-46 -15 -64 47
c-86 63 -120 79 -244 114 -119 33 -156 36 -229 16 -69 -18 -107 -39 -157 -87
l-43 -41 -35 21 c-63 39 -138 70 -217 90 -121 30 -161 32 -229 12z m893 -243
c65 -22 157 -79 177 -110 9 -14 3 -24 -31 -53 -39 -33 -177 -224 -169 -233 2
-2 35 21 73 52 178 144 445 255 614 256 102 0 163 -23 224 -84 59 -58 79 -106
95 -228 14 -101 1 -223 -50 -478 -40 -194 -57 -264 -163 -646 -65 -236 -76
-294 -55 -294 21 0 116 202 298 627 49 117 101 236 114 265 13 29 52 116 86
193 103 232 266 561 289 584 18 18 29 21 59 15 94 -17 262 -137 278 -199 5
-19 -6 -68 -34 -159 -128 -410 -274 -1033 -298 -1270 -6 -54 -4 -66 8 -66 82
0 554 1086 669 1540 19 76 24 143 16 235 -2 26 2 30 25 33 62 7 208 -100 248
-182 46 -95 12 -236 -147 -616 -238 -568 -630 -1232 -815 -1380 -62 -50 -105
-62 -167 -46 -138 36 -223 171 -206 330 21 200 92 634 131 794 14 57 24 108
21 115 -7 23 -247 -464 -443 -902 -121 -268 -143 -307 -179 -321 -32 -12 -109
6 -194 47 -87 42 -191 135 -191 173 0 25 48 221 110 445 65 236 197 763 224
890 25 119 48 305 41 328 -2 7 -6 25 -10 41 -6 27 -8 28 -50 23 -60 -6 -165
-70 -257 -156 -168 -157 -278 -379 -278 -560 0 -67 23 -125 56 -144 18 -10 18
-26 -2 -48 -8 -9 -22 -44 -29 -77 -32 -135 -164 -421 -267 -577 -63 -96 -197
-234 -253 -261 -59 -28 -175 -26 -236 4 -92 45 -161 142 -175 245 -4 26 -9 47
-13 47 -3 -1 -29 -35 -58 -78 -62 -92 -163 -196 -218 -225 -28 -14 -58 -20
-100 -20 -174 3 -286 141 -289 355 -1 45 -5 77 -11 75 -5 -2 -24 -31 -41 -65
-83 -159 -221 -324 -298 -356 -112 -47 -269 21 -331 144 -120 237 26 800 278
1068 50 52 142 116 207 143 24 9 74 14 160 14 121 0 128 -1 190 -32 36 -18 68
-29 72 -25 4 4 22 50 41 102 114 313 274 621 363 699 30 27 43 31 90 31 92 0
228 -56 288 -119 l28 -29 -59 -59 c-203 -205 -541 -1027 -618 -1503 -24 -153
-18 -210 21 -210 35 0 139 144 271 376 56 97 75 142 97 230 16 60 54 186 85
279 30 94 55 175 56 180 0 6 -29 17 -65 25 -81 20 -89 41 -35 89 30 26 43 31
89 31 31 0 58 5 64 13 5 6 31 63 56 125 59 145 166 360 218 437 82 121 119
149 192 140 27 -3 78 -16 113 -27z m3073 18 c66 -16 130 -45 143 -67 7 -11 0
-28 -30 -67 -21 -28 -78 -122 -127 -207 -49 -86 -95 -162 -103 -170 -36 -37
-175 2 -221 60 -18 22 -21 36 -16 64 18 102 113 316 164 371 24 26 35 30 82
30 29 0 78 -6 108 -14z m-5623 -107 c208 -29 379 -149 458 -322 41 -89 61
-214 47 -302 -35 -225 -188 -418 -454 -572 -43 -25 -78 -50 -78 -57 0 -7 9
-21 20 -31 32 -29 78 -107 101 -171 59 -168 -24 -368 -217 -523 -127 -103
-262 -168 -459 -222 -90 -25 -136 -32 -250 -36 -134 -5 -142 -4 -185 19 -86
46 -150 160 -150 265 0 70 21 118 60 138 45 23 54 10 24 -40 -16 -28 -23 -52
-19 -64 15 -48 149 -54 324 -15 358 80 691 296 691 447 0 32 -7 46 -35 72 -48
46 -150 79 -202 66 -92 -23 -153 -22 -216 4 -14 6 -23 -6 -53 -71 -45 -99
-110 -294 -119 -359 -12 -79 -21 -95 -52 -95 -58 0 -187 110 -204 173 -32 119
125 643 311 1044 54 115 100 186 136 209 22 15 32 15 114 0 97 -18 223 -60
240 -81 8 -10 -4 -34 -50 -96 -56 -78 -240 -428 -240 -458 0 -17 34 -9 115 27
316 139 638 456 638 628 0 98 -111 155 -303 155 -316 0 -733 -167 -950 -381
-63 -63 -130 -161 -130 -193 0 -8 -8 -25 -18 -37 -14 -18 -25 -21 -45 -16 -57
14 -135 108 -158 189 -24 87 72 256 212 376 273 232 755 377 1096 330z m5288
-691 c54 -21 113 -62 122 -84 3 -8 -9 -30 -26 -49 -59 -67 -201 -392 -255
-580 -48 -171 -69 -342 -46 -386 39 -71 139 51 341 415 72 131 82 157 139 355
33 118 63 241 67 273 9 88 46 104 175 77 118 -25 198 -80 198 -135 0 -14 -39
-131 -86 -262 -109 -300 -173 -492 -174 -516 0 -15 3 -16 15 -6 8 7 15 16 15
21 0 10 171 309 226 396 145 226 357 476 427 502 67 26 198 5 284 -45 65 -38
71 -57 30 -103 -66 -73 -210 -416 -267 -637 -39 -148 -52 -312 -27 -333 46
-37 104 25 245 263 107 180 148 258 203 389 48 114 126 220 197 269 40 28 55
33 108 33 51 0 66 -4 98 -29 82 -62 126 -219 126 -448 -1 -276 -56 -540 -157
-742 -138 -278 -375 -518 -585 -592 -23 -8 -142 -20 -281 -29 -133 -9 -370
-24 -527 -35 -157 -11 -420 -29 -585 -40 -165 -11 -361 -25 -435 -30 -74 -5
-272 -19 -440 -30 -168 -11 -399 -27 -515 -36 -115 -8 -275 -19 -355 -24 -494
-33 -1054 -71 -1170 -80 -74 -5 -364 -26 -645 -45 -280 -20 -573 -40 -650 -45
-77 -6 -205 -15 -285 -20 -219 -16 -812 -60 -925 -69 -55 -5 -103 -7 -107 -4
-4 2 -27 34 -51 71 -86 133 -216 253 -417 384 -112 73 -351 195 -488 248 -62
25 -82 37 -82 51 0 23 -490 20 4410 28 l3525 6 60 29 c44 21 88 57 166 136 93
95 113 121 162 217 101 198 150 349 163 508 13 158 -35 265 -119 265 -61 0
-112 -69 -252 -345 -116 -226 -232 -381 -334 -447 -87 -55 -229 -30 -308 53
-65 69 -101 209 -89 344 9 89 50 293 82 403 14 47 23 87 20 89 -7 8 -156 -204
-223 -319 -36 -62 -118 -214 -181 -338 -64 -124 -127 -235 -139 -248 -20 -20
-30 -23 -66 -17 -62 11 -127 47 -174 98 -40 43 -49 66 -55 142 -3 29 -5 27
-55 -40 -64 -87 -136 -157 -188 -184 -77 -41 -196 -21 -273 45 -114 97 -135
291 -66 602 59 262 181 557 270 649 l43 45 68 -7 c37 -4 90 -16 118 -27z"/>
<path d="M4435 6724 c-19 -16 -19 -16 5 -9 28 8 25 8 60 6 l25 -1 -5 -223 c-3
-140 -9 -229 -16 -238 -17 -21 -85 -191 -74 -184 5 3 45 77 89 165 91 183 134
250 208 331 29 31 53 59 53 62 0 3 -23 19 -50 37 -97 62 -249 90 -295 54z"/>
<path d="M4618 6045 c-3 -3 -42 -6 -86 -6 -45 0 -82 -5 -82 -10 0 -5 11 -9 24
-9 29 0 41 -15 49 -57 l7 -33 -65 0 c-81 0 -85 -15 -6 -23 73 -8 112 5 144 46
32 43 51 97 33 97 -7 0 -15 -2 -18 -5z"/>
<path d="M2913 5951 c-94 -32 -200 -119 -272 -224 -36 -53 -111 -200 -111
-219 0 -8 -4 -18 -8 -23 -5 -6 -17 -37 -27 -70 -10 -33 -21 -69 -25 -80 -18
-51 -28 -111 -19 -119 5 -6 9 2 9 22 0 18 5 32 10 32 6 0 10 13 10 28 0 15 4
32 9 38 5 5 11 20 13 34 1 14 3 -122 3 -302 l0 -327 -22 24 c-13 13 -23 31
-23 40 0 9 -4 14 -9 10 -6 -3 -5 -18 3 -36 33 -79 131 -139 227 -139 48 0 63
5 109 38 51 35 161 167 193 230 7 15 27 52 44 82 69 124 71 130 64 205 -4 39
-4 72 1 73 4 2 8 9 8 16 0 12 20 60 41 99 9 17 5 37 -5 26 -2 -2 -35 -66 -74
-142 -148 -288 -257 -447 -307 -447 -16 0 -28 10 -40 37 -57 120 79 556 254
811 65 95 124 155 168 174 23 9 25 12 10 15 -10 3 -24 0 -32 -7 -17 -14 -22
-5 -26 50 l-4 45 43 3 c81 6 31 22 -66 21 -65 0 -114 -6 -149 -18z"/>
<path d="M4366 5848 c-123 -295 -233 -702 -238 -876 -3 -72 0 -84 18 -103 57
-56 142 46 370 443 64 112 125 215 135 230 l19 26 -71 47 c-93 63 -164 153
-193 248 -8 27 -26 20 -40 -15z"/>
<path d="M3178 5863 c6 -2 18 -2 25 0 6 3 1 5 -13 5 -14 0 -19 -2 -12 -5z"/>
<path d="M3145 5811 c-162 -76 -395 -551 -412 -841 -4 -76 -2 -99 10 -115 15
-20 16 -19 50 13 50 49 141 207 287 499 185 373 194 392 181 420 -9 20 -47 43
-69 43 -4 0 -25 -9 -47 -19z"/>
<path d="M4692 5568 c-7 -7 -12 -15 -12 -19 0 -4 -19 -40 -43 -81 -24 -40 -62
-107 -84 -148 -22 -41 -50 -92 -62 -113 -24 -43 -25 -47 -11 -47 6 0 10 5 10
11 0 6 7 17 15 25 13 14 15 11 15 -28 0 -30 -12 -67 -39 -123 -22 -44 -38 -81
-37 -82 11 -11 156 272 204 397 25 65 65 210 60 216 -3 2 -10 -2 -16 -8z"/>
<path d="M3185 5510 c-3 -5 -1 -10 4 -10 6 0 11 5 11 10 0 6 -2 10 -4 10 -3 0
-8 -4 -11 -10z"/>
<path d="M3171 5474 c0 -11 3 -14 6 -6 3 7 2 16 -1 19 -3 4 -6 -2 -5 -13z"/>
<path d="M3151 5434 c0 -11 3 -14 6 -6 3 7 2 16 -1 19 -3 4 -6 -2 -5 -13z"/>
<path d="M2433 5130 c0 -25 2 -35 4 -22 2 12 2 32 0 45 -2 12 -4 2 -4 -23z"/>
<path d="M3105 5150 c3 -5 8 -10 11 -10 2 0 4 5 4 10 0 6 -5 10 -11 10 -5 0
-7 -4 -4 -10z"/>
<path d="M4455 5140 c-3 -5 -1 -10 4 -10 6 0 11 5 11 10 0 6 -2 10 -4 10 -3 0
-8 -4 -11 -10z"/>
<path d="M3137 5106 c-4 -10 -5 -21 -2 -24 9 -9 17 6 13 25 -3 17 -4 17 -11
-1z"/>
<path d="M2410 4991 c0 -28 5 -51 10 -51 6 0 10 20 10 44 0 25 -4 48 -10 51
-6 4 -10 -13 -10 -44z"/>
<path d="M2433 4865 c0 -22 2 -30 4 -17 2 12 2 30 0 40 -3 9 -5 -1 -4 -23z"/>
<path d="M3150 4859 c0 -11 4 -18 10 -14 5 3 7 12 3 20 -7 21 -13 19 -13 -6z"/>
<path d="M3171 4804 c0 -11 3 -14 6 -6 3 7 2 16 -1 19 -3 4 -6 -2 -5 -13z"/>
<path d="M2410 6453 c19 -22 48 -65 63 -95 29 -55 29 -55 29 -252 l0 -198 -28
-56 c-16 -31 -37 -65 -46 -76 -10 -11 -20 -28 -24 -38 -3 -10 -9 -18 -14 -18
-4 0 -11 -8 -14 -17 -9 -25 43 33 77 85 77 119 100 190 100 312 0 159 -56 295
-153 375 -16 13 -12 6 10 -22z"/>
<path d="M1097 6380 c-14 -11 -29 -20 -33 -20 -9 0 -121 -95 -152 -130 -63
-71 -121 -187 -122 -246 0 -68 92 -194 143 -194 10 0 22 11 27 28 25 68 70
139 130 205 44 48 55 64 33 49 -18 -13 -35 -27 -38 -32 -19 -31 -25 4 -25 145
0 85 3 155 8 155 11 0 66 50 60 55 -3 3 -16 -4 -31 -15z"/>
<path d="M2412 6230 c0 -14 2 -19 5 -12 2 6 2 18 0 25 -3 6 -5 1 -5 -13z"/>
<path d="M1161 5154 c0 -11 3 -14 6 -6 3 7 2 16 -1 19 -3 4 -6 -2 -5 -13z"/>
<path d="M1143 5010 c0 -30 2 -43 4 -27 2 15 2 39 0 55 -2 15 -4 2 -4 -28z"/>
<path d="M950 4795 c-7 -9 -10 -18 -7 -21 3 -3 10 4 17 15 13 25 8 27 -10 6z"/>
<path d="M930 4717 c0 -62 51 -179 96 -219 25 -22 100 -51 116 -45 9 3 6 7 -7
12 -79 29 -75 24 -75 101 l0 71 43 8 42 8 -50 7 c-78 11 -132 34 -141 62 -8
26 -24 22 -24 -5z"/>
<path d="M1805 4280 c-752 -4 -945 -8 -925 -17 14 -7 59 -26 100 -43 201 -83
452 -233 606 -362 98 -83 157 -147 224 -246 29 -44 47 -61 59 -58 9 3 61 7
116 11 55 3 150 10 210 15 61 5 180 14 265 20 85 6 207 15 270 20 63 6 189 14
280 20 91 5 253 16 360 25 107 8 294 21 415 29 121 9 285 21 365 26 320 23
1558 112 1755 126 116 8 262 19 325 24 63 5 201 17 305 25 105 9 195 18 200
20 6 2 -47 4 -117 4 -156 1 -168 5 -132 38 24 22 25 27 14 48 -10 18 -10 31
-1 56 6 18 8 47 5 66 -5 29 -3 34 20 43 49 18 20 67 -34 56 -17 -3 -30 -1 -30
3 0 5 35 12 78 16 42 4 91 8 107 10 17 2 64 5 105 6 l75 2 -65 7 c-82 10
-3696 17 -4955 10z m4655 -270 c0 -5 -4 -10 -10 -10 -5 0 -10 5 -10 10 0 6 5
10 10 10 6 0 10 -4 10 -10z"/>
</g>
</svg>
